<?xml version="1.0" encoding="UTF-8"?>
<svg width="16px" height="16px" viewBox="0 0 16 16" version="1.1" xmlns="http://www.w3.org/2000/svg" xmlns:xlink="http://www.w3.org/1999/xlink">
    <title>icon/login/account-line</title>
    <g id="icon/login/account-line" stroke="none" stroke-width="1" fill="none" fill-rule="evenodd">
        <g id="编组" transform="translate(0.883993, 1.333333)">
            <rect id="矩形" fill="#737780" x="6.49100653" y="9.58333333" width="1.25" height="4.58333333" rx="0.625"></rect>
            <path d="M7.95173032,7 C9.09136494,7 10.1742546,7.34505465 11.0796843,7.95397995 C11.9851141,8.56290524 12.7130839,9.43570118 13.1428787,10.4911838 L13.1428787,10.4911838 L13.3527909,11.0066824 C13.5350405,11.4542478 13.5186248,11.9333135 13.3447554,12.3460503 C13.170886,12.758787 12.8395628,13.1051948 12.3919974,13.2874445 C12.182426,13.3727824 11.9582933,13.4166667 11.7320131,13.4166667 L11.7320131,13.4166667 L2.5,13.4166667 C2.01675084,13.4166667 1.57925084,13.2207912 1.26256313,12.9041035 C0.945875422,12.5874158 0.75,12.1499158 0.75,11.6666667 C0.75,11.4403864 0.793884251,11.2162538 0.879222192,11.0066824 L0.879222192,11.0066824 L1.08913436,10.4911838 C1.51892921,9.43570118 2.24689899,8.56290524 3.15232872,7.95397995 C4.05775845,7.34505465 5.14064812,7 6.28028274,7 L6.28028274,7 Z" id="路径" stroke="#737780" stroke-width="1.5"></path>
            <circle id="椭圆形" stroke="#737780" stroke-width="1.5" cx="7.11600653" cy="3.33333333" r="3.33333333"></circle>
        </g>
    </g>
</svg>