<?xml version="1.0" encoding="UTF-8"?>
<svg width="24px" height="24px" viewBox="0 0 24 24" version="1.1" xmlns="http://www.w3.org/2000/svg" xmlns:xlink="http://www.w3.org/1999/xlink">
    <title>常用/切换</title>
    <g id="常用/切换" stroke="none" stroke-width="1" fill="none" fill-rule="evenodd">
        <path d="M17.5238161,13.6 C17.5737606,13.6 17.6216595,13.6198404 17.6569756,13.6551565 C17.7158091,13.71399 17.7275758,13.8020672 17.6922757,13.8725982 L17.6569756,13.9214754 L14.5336075,17.0448435 C14.4982914,17.0801596 14.4503925,17.1 14.400448,17.1 C14.313778,17.1 14.240783,17.0414501 14.2188589,16.9617459 L14.212132,16.9116841 L14.212132,15.1 L6.75,15.1 C6.33578644,15.1 6,14.7642136 6,14.35 C6,13.9357864 6.33578644,13.6 6.75,13.6 L17.5238161,13.6 Z M9.31168405,8 C9.39835407,8 9.47134902,8.05854995 9.49327317,8.13825411 L9.5,8.18831595 L9.5,10 L16.962132,10 C17.3763456,10 17.712132,10.3357864 17.712132,10.75 C17.712132,11.1642136 17.3763456,11.5 16.962132,11.5 L6.18831595,11.5 C6.13837145,11.5 6.09047256,11.4801596 6.05515646,11.4448435 C5.9963229,11.38601 5.98455619,11.2979328 6.01985633,11.2274018 L6.05515646,11.1785246 L9.17852457,8.05515646 C9.21384066,8.01984037 9.26173956,8 9.31168405,8 Z" id="形状结合" fill="#3E95ED"></path>
    </g>
</svg>