<?xml version="1.0" encoding="UTF-8"?>
<svg width="16px" height="16px" viewBox="0 0 16 16" version="1.1" xmlns="http://www.w3.org/2000/svg" xmlns:xlink="http://www.w3.org/1999/xlink">
    <title>icon/login/验证码-line</title>
    <g id="icon/login/验证码-line" stroke="none" stroke-width="1" fill="none" fill-rule="evenodd">
        <path d="M13.5971599,3.92515987 C11.5225807,3.48811499 9.82549337,2.42622039 8.15547083,1.06534786 C8.05103355,0.980262607 7.84168129,0.977038489 7.73740938,1.06289045 C6.9735878,1.69175067 6.18644973,2.30433302 5.34814034,2.81203325 C4.42979423,3.36825252 3.30713029,3.62903253 2.29439743,3.91578241 C2.0245399,3.99219793 1.95572962,4.26457689 2.02532997,4.48613668 C2.11003367,6.54575808 2.42459492,8.70811874 3.22753454,10.5838082 C4.07530649,12.5643994 6.07378095,14.0468251 7.85489212,14.9502268 C7.91661007,14.9815636 7.97731745,14.9960132 8.03532387,14.9970748 C8.10988517,15.0065309 8.19056498,14.9936147 8.27289845,14.9502268 C10.0573904,14.0107503 11.8894708,12.5322368 12.7930076,10.5838082 C13.6535677,8.72817118 13.9228006,6.43647229 13.9995851,4.37922966 C14.0088456,4.13142476 13.8617808,3.99042859 13.6890294,3.9554941 C13.661395,3.94259763 13.6308943,3.93229618 13.5971599,3.92515987 Z" id="形状结合备份" stroke="#737780" stroke-width="1.5"></path>
        <path d="M11.0052038,5.76256313 C11.298097,6.05545635 11.298097,6.53033009 11.0052038,6.8232233 L7.8232233,10.0052038 L7.8232233,10.0052038 C7.71671668,10.1117104 7.58614652,10.1794874 7.44901357,10.2085346 L7.34520678,10.2230583 L7.34520678,10.2230583 L7.24057965,10.2230583 C7.06642898,10.2109553 6.89569641,10.1383371 6.76256313,10.0052038 L4.99479618,8.23743687 C4.70190296,7.94454365 4.70190296,7.46966991 4.99479618,7.1767767 C5.2876894,6.88388348 5.76256313,6.88388348 6.05545635,7.1767767 L7.29312627,8.41389322 L9.94454365,5.76256313 C10.2374369,5.46966991 10.7123106,5.46966991 11.0052038,5.76256313 Z" id="形状结合" fill="#737780"></path>
    </g>
</svg>