<?xml version="1.0" encoding="UTF-8"?>
<svg width="16px" height="16px" viewBox="0 0 16 16" version="1.1" xmlns="http://www.w3.org/2000/svg" xmlns:xlink="http://www.w3.org/1999/xlink">
    <title>btn/login/密码-闭眼</title>
    <g id="btn/login/密码-闭眼" stroke="none" stroke-width="1" fill="none" fill-rule="evenodd">
        <path d="M14.8459692,5.30374466 C15.010417,5.0194082 15.3848415,4.91635125 15.6822699,5.07356053 C15.9796982,5.2307698 16.0875002,5.58871335 15.9230525,5.87304982 C15.3523368,6.85983917 14.6885005,7.69036054 13.9340262,8.36279524 C13.9620645,8.38194423 13.9886383,8.4037969 14.0136067,8.42813645 L15.5396625,9.91575483 C15.7925075,10.1622313 15.7849757,10.5703961 15.5228397,10.8274165 C15.2607037,11.0844368 14.8432291,11.0929842 14.5903841,10.8465077 L13.0643284,9.35888934 C12.9974468,9.29369233 12.9487835,9.21718219 12.9182315,9.13514878 C12.2588867,9.56375543 11.5407487,9.8907539 10.767148,10.1162604 C10.7711164,10.1247678 10.7743036,10.1350528 10.7772371,10.1454678 L11.355031,12.196811 C11.4507629,12.5366884 11.2401578,12.8864036 10.8846312,12.9779217 C10.5291046,13.0694399 10.1632873,12.8681049 10.0675554,12.5282275 L9.48976149,10.4768843 L9.4735164,10.3915484 C8.99998276,10.4576636 8.50873399,10.4908054 8,10.4908054 C7.49162427,10.4908054 7.00070915,10.4577103 6.52748405,10.391688 L6.51058654,10.4768843 L5.93279268,12.5282275 C5.83706073,12.8681049 5.47124341,13.0694399 5.11571683,12.9779217 C4.76019026,12.8864036 4.5495851,12.5366884 4.64531705,12.196811 L4.64531705,12.196811 L5.22311091,10.1454678 C5.22604448,10.1350528 5.22923166,10.1247678 5.23266439,10.1146174 C4.45948009,9.89092161 3.74067763,9.56361132 3.07869471,9.13553846 C3.05076297,9.21718219 3.00209964,9.29369233 2.93521806,9.35888934 L2.93521806,9.35888934 L1.4091623,10.8465077 C1.15631729,11.0929842 0.738842715,11.0844368 0.476706732,10.8274165 C0.214570749,10.5703961 0.207038923,10.1622313 0.459883929,9.91575483 L0.459883929,9.91575483 L1.98593969,8.42813645 C2.01091203,8.4037931 2.03749028,8.3819374 2.06536615,8.36256305 C1.31149954,7.69036054 0.647663243,6.85983917 0.0769475164,5.87304982 C-0.0875002358,5.58871335 0.0203018208,5.2307698 0.317730149,5.07356053 C0.615158477,4.91635125 0.98958302,5.0194082 1.15403077,5.30374466 C2.71081499,7.99548422 4.96811789,9.31422747 8,9.31422747 C11.0318821,9.31422747 13.289185,7.99548422 14.8459692,5.30374466 Z" id="形状结合" fill="#737780"></path>
    </g>
</svg>