<?xml version="1.0" encoding="UTF-8"?>
<svg width="16px" height="16px" viewBox="0 0 16 16" version="1.1" xmlns="http://www.w3.org/2000/svg" xmlns:xlink="http://www.w3.org/1999/xlink">
    <title>btn/login/密码-闭眼备份</title>
    <g id="btn/login/密码-闭眼备份" stroke="none" stroke-width="1" fill="none" fill-rule="evenodd">
        <g id="编组备份" transform="translate(1.000000, 2.000000)">
            <path d="M7,0.65625 C8.38801044,0.65625 9.60822979,1.06580727 10.6585023,1.89102141 C11.6954474,2.70576394 12.5644971,3.91345841 13.2824549,5.50028216 C12.5643853,7.08669696 11.6953807,8.29428847 10.6585023,9.10897859 C9.60822979,9.93419273 8.38801044,10.34375 7,10.34375 C5.61198956,10.34375 4.39177021,9.93419273 3.34149766,9.10897859 C2.30455263,8.29423606 1.43550289,7.08654159 0.717545134,5.49971784 C1.4356147,3.91330304 2.30461933,2.70571153 3.34149766,1.89102141 C4.39177021,1.06580727 5.61198956,0.65625 7,0.65625 Z" id="路径" stroke="#737780" stroke-width="1.3125"></path>
            <path d="M7,0 C10.0852636,0 12.418597,1.83333333 14,5.5 C12.418597,9.16666667 10.0852636,11 7,11 C3.91473636,11 1.58140303,9.16666667 0,5.5 C1.58140303,1.83333333 3.91473636,0 7,0 Z M7,1.32 C4.71380198,1.32 2.94123325,2.54943272 1.59520518,5.19044106 L1.442,5.49912 L1.46202095,5.54074611 C2.77970974,8.27606188 4.52103623,9.59373058 6.77308907,9.67589514 L7,9.68 C9.28619802,9.68 11.0587668,8.45056728 12.4047948,5.80955894 L12.557125,5.49912 L12.537979,5.45925389 C11.2202903,2.72393812 9.47896377,1.40626942 7.22691093,1.32410486 L7,1.32 Z" id="路径" fill="#737780" fill-rule="nonzero"></path>
            <ellipse id="椭圆形" fill="#737780" cx="7" cy="5.5" rx="2.625" ry="2.64"></ellipse>
        </g>
    </g>
</svg>