<?xml version="1.0" encoding="UTF-8"?>
<svg width="32px" height="32px" viewBox="0 0 32 32" version="1.1" xmlns="http://www.w3.org/2000/svg" xmlns:xlink="http://www.w3.org/1999/xlink">
    <title>logo/zoho</title>
    <g id="logo/zoho" stroke="none" stroke-width="1" fill="none" fill-rule="evenodd" stroke-linecap="round">
        <g id="icon-CDR备份" stroke="#FFFFFF" stroke-width="1.71428571">
            <g id="编组-14" transform="translate(4.000000, 9.000000)">
                <path d="M11.7735178,1.66467637 C10.5320203,0.623538726 8.95157095,0 7.23071526,0 C3.23730149,0 0,3.35786438 0,7.5 C0,11.6421356 3.23730149,15 7.23071526,15 C7.93506203,15 8.61588698,14.8955406 9.2595761,14.7007428" id="路径"></path>
                <path d="M24,1.66467637 C22.7585025,0.623538726 21.1780531,0 19.4571974,0 C15.4637837,0 12.2264822,3.35786438 12.2264822,7.5 C12.2264822,11.6421356 15.4637837,15 19.4571974,15 C20.1615442,15 20.8423692,14.8955406 21.4860583,14.7007428" id="路径备份" transform="translate(18.113241, 7.500000) scale(-1, -1) translate(-18.113241, -7.500000) "></path>
                <path d="M9.20949299,4.31914118 L15.9722305,4.44276736 C17.0446438,4.4623716 17.9298989,5.34762676 17.9495032,6.42004009 C17.9691074,7.49245342 17.115637,8.34592381 16.0432237,8.32631956 C13.5888131,8.28145173 11.7480052,8.24780085 10.5207999,8.22536693" id="路径" transform="translate(13.579664, 6.322896) rotate(-315.000000) translate(-13.579664, -6.322896) "></path>
                <path d="M14.7613454,10.6600575 L7.99860795,10.5364313 C6.92619462,10.516827 6.04093947,9.63157189 6.02133522,8.55915856 C6.00173098,7.48674523 6.85520137,6.63327484 7.9276147,6.65287908" id="路径" transform="translate(10.391175, 8.656303) rotate(-315.000000) translate(-10.391175, -8.656303) "></path>
            </g>
        </g>
    </g>
</svg>