<?xml version="1.0" encoding="UTF-8"?>
<svg width="24px" height="24px" viewBox="0 0 24 24" version="1.1" xmlns="http://www.w3.org/2000/svg" xmlns:xlink="http://www.w3.org/1999/xlink">
    <title>icon/loading/2</title>
    <g id="icon/loading/2" stroke="none" stroke-width="1" fill="none" fill-rule="evenodd">
        <path d="M12,17 C12.5522847,17 13,17.4477153 13,18 L13,21 C13,21.5522847 12.5522847,22 12,22 C11.4477153,22 11,21.5522847 11,21 L11,18 C11,17.4477153 11.4477153,17 12,17 Z M15.8660254,16.6961524 L17.3660254,19.2942286 C17.6421678,19.7725213 17.4782926,20.3841117 17,20.660254 C16.5217074,20.9363964 15.910117,20.7725213 15.6339746,20.2942286 L14.1339746,17.6961524 C13.8578322,17.2178598 14.0217074,16.6062694 14.5,16.330127 C14.9782926,16.0539846 15.589883,16.2178598 15.8660254,16.6961524 Z M9.5,16.330127 C9.97829262,16.6062694 10.1421678,17.2178598 9.8660254,17.6961524 L8.3660254,20.2942286 C8.08988303,20.7725213 7.47829262,20.9363964 7,20.660254 C6.52170738,20.3841117 6.35783222,19.7725213 6.6339746,19.2942286 L8.1339746,16.6961524 C8.41011697,16.2178598 9.02170738,16.0539846 9.5,16.330127 Z M17.6961524,14.1339746 L20.2942286,15.6339746 C20.7725213,15.910117 20.9363964,16.5217074 20.660254,17 C20.3841117,17.4782926 19.7725213,17.6421678 19.2942286,17.3660254 L16.6961524,15.8660254 C16.2178598,15.589883 16.0539846,14.9782926 16.330127,14.5 C16.6062694,14.0217074 17.2178598,13.8578322 17.6961524,14.1339746 Z M7.66987298,14.5 C7.94601536,14.9782926 7.7821402,15.589883 7.30384758,15.8660254 L4.70577137,17.3660254 C4.22747874,17.6421678 3.61588834,17.4782926 3.33974596,17 C3.06360359,16.5217074 3.22747874,15.910117 3.70577137,15.6339746 L6.30384758,14.1339746 C6.7821402,13.8578322 7.39373061,14.0217074 7.66987298,14.5 Z M6,11 C6.55228475,11 7,11.4477153 7,12 C7,12.5522847 6.55228475,13 6,13 L3,13 C2.44771525,13 2,12.5522847 2,12 C2,11.4477153 2.44771525,11 3,11 L6,11 Z M21,11 C21.5522847,11 22,11.4477153 22,12 C22,12.5522847 21.5522847,13 21,13 L18,13 C17.4477153,13 17,12.5522847 17,12 C17,11.4477153 17.4477153,11 18,11 L21,11 Z M4.70577137,6.6339746 L7.30384758,8.1339746 C7.7821402,8.41011697 7.94601536,9.02170738 7.66987298,9.5 C7.39373061,9.97829262 6.7821402,10.1421678 6.30384758,9.8660254 L3.70577137,8.3660254 C3.22747874,8.08988303 3.06360359,7.47829262 3.33974596,7 C3.61588834,6.52170738 4.22747874,6.35783222 4.70577137,6.6339746 Z M20.660254,7 C20.9363964,7.47829262 20.7725213,8.08988303 20.2942286,8.3660254 L17.6961524,9.8660254 C17.2178598,10.1421678 16.6062694,9.97829262 16.330127,9.5 C16.0539846,9.02170738 16.2178598,8.41011697 16.6961524,8.1339746 L19.2942286,6.6339746 C19.7725213,6.35783222 20.3841117,6.52170738 20.660254,7 Z M8.3660254,3.70577137 L9.8660254,6.30384758 C10.1421678,6.7821402 9.97829262,7.39373061 9.5,7.66987298 C9.02170738,7.94601536 8.41011697,7.7821402 8.1339746,7.30384758 L6.6339746,4.70577137 C6.35783222,4.22747874 6.52170738,3.61588834 7,3.33974596 C7.47829262,3.06360359 8.08988303,3.22747874 8.3660254,3.70577137 Z M17,3.33974596 C17.4782926,3.61588834 17.6421678,4.22747874 17.3660254,4.70577137 L15.8660254,7.30384758 C15.589883,7.7821402 14.9782926,7.94601536 14.5,7.66987298 C14.0217074,7.39373061 13.8578322,6.7821402 14.1339746,6.30384758 L15.6339746,3.70577137 C15.910117,3.22747874 16.5217074,3.06360359 17,3.33974596 Z M12,2 C12.5522847,2 13,2.44771525 13,3 L13,6 C13,6.55228475 12.5522847,7 12,7 C11.4477153,7 11,6.55228475 11,6 L11,3 C11,2.44771525 11.4477153,2 12,2 Z" id="形状结合" fill=""></path>
    </g>
</svg>