<?xml version="1.0" encoding="UTF-8"?>
<svg xmlns="http://www.w3.org/2000/svg" xmlns:xlink="http://www.w3.org/1999/xlink" width="24px" height="24px" viewBox="0 0 24 24" version="1.1">
  <title>Icon_left</title>
  <g id="🚩me" stroke="none" stroke-width="1" fill="none" fill-rule="evenodd">
    <g id="me/06设置" transform="translate(-12.000000, -30.000000)">
      <g id="Bar/Navbar/Basic备份" transform="translate(0.000000, 20.000000)">
        <g id="Icon_left" transform="translate(12.000000, 10.000000)">
          <rect id="bg" x="0" y="0" width="24" height="24"></rect>
          <path d="M16.2088118,3 C16.0065102,2.99949123 15.8122161,3.07893543 15.6683192,3.22100245 L7.28567936,11.3235025 C6.92294502,11.6782939 6.90311756,12.2551875 7.24063831,12.6340025 L7.28567936,12.6760025 L15.6683192,20.7790025 C15.8187856,20.9269101 16.0234177,21.0066376 16.2343832,20.9995488 C16.4453486,20.99246 16.6441566,20.8991763 16.7843363,20.7415025 C17.0847428,20.4087216 17.0692951,19.898533 16.7493044,19.5845025 L8.90215259,12 L16.7493044,4.41550245 C17.0694856,4.10175352 17.0849412,3.59152157 16.7843363,3.25900245 C16.6379402,3.09509332 16.4286906,3.00110769 16.2088118,3.00050245" id="icon_back_white" fill="#222222"></path>
          <rect id="codesign_placeholder_name" x="0" y="0" width="24" height="24"></rect>
        </g>
      </g>
    </g>
  </g>
</svg>
