<?xml version="1.0" encoding="UTF-8"?>
<svg width="120px" height="90px" viewBox="0 0 120 90" version="1.1" xmlns="http://www.w3.org/2000/svg" xmlns:xlink="http://www.w3.org/1999/xlink">
    <title>pic-无权限</title>
    <defs>
        <rect id="path-1" x="0" y="0" width="120" height="90"></rect>
    </defs>
    <g id="应用市场🚩" stroke="none" stroke-width="1" fill="none" fill-rule="evenodd">
        <g id="应用市场-04插件-01Zohocrm-05无权限" transform="translate(-180.000000, -120.000000)">
            <g id="pic-无权限" transform="translate(180.000000, 120.000000)">
                <mask id="mask-2" fill="white">
                    <use xlink:href="#path-1"></use>
                </mask>
                <use id="蒙版" fill="#FFFFFF" opacity="0" xlink:href="#path-1"></use>
                <g id="编组-5" mask="url(#mask-2)">
                    <g transform="translate(0.682448, 10.000000)">
                        <path d="M7.56137259,17.8067246 L7.56137259,24.3397822 C11.5004791,28.0705933 13.8476206,30.5608346 14.6027969,31.8105059 C17.6787446,26.9949932 15.3316032,22.3270661 7.56137259,17.8067246 Z" id="路径-15" fill="#0D2450" transform="translate(11.736333, 24.808615) scale(-1, 1) rotate(-15.000000) translate(-11.736333, -24.808615) "></path>
                        <g id="编组-13" stroke-width="1" fill="none" transform="translate(16.317552, 0.000000)">
                            <path d="M54.0367898,63 L5.49958568,63 M0,38.8681195 C0,30.3347377 0,20.8467637 0,3.78 C0,1.69236365 1.69236365,0 3.78,0 L80.22,0 C82.3076364,0 84,1.69236365 84,3.78 L84,20.6469166" id="形状" stroke="#0D2450" stroke-width="0.7" fill="#FFFFFF" stroke-linecap="round"></path>
                            <rect id="矩形" fill="#E7EEF8" x="5" y="10" width="74" height="48" rx="1.89"></rect>
                            <rect id="矩形" fill="#FFFFFF" x="11" y="21" width="7" height="22" rx="2"></rect>
                            <rect id="矩形备份-8" fill="#FFFFFF" x="23" y="24" width="24" height="3"></rect>
                            <rect id="矩形备份-10" fill="#FFFFFF" x="23" y="35" width="24" height="3"></rect>
                            <circle id="椭圆形" fill="#E63B39" cx="6.5" cy="5.5" r="1.5"></circle>
                            <circle id="椭圆形备份" stroke="#0D2450" stroke-width="0.7" cx="16.5" cy="5.5" r="1.5"></circle>
                            <circle id="椭圆形备份-2" fill="#F7B548" cx="11.5" cy="5.5" r="1.5"></circle>
                            <path d="M88.735,30.3157895 C89.7788182,30.3157895 90.625,31.1619713 90.625,32.2057895 L90.625,59.3684211 L90.6135853,59.3681308 C90.188794,65.074828 78.0064466,72 70.625,72 C63.2435534,72 51.061206,65.074828 50.6364147,59.3681308 L50.625,59.3684211 L50.625,32.2057895 C50.625,31.1619713 51.4711818,30.3157895 52.515,30.3157895 L88.735,30.3157895 Z" id="形状结合" fill="#F7B548"></path>
                            <path d="M93.11,26.8763158 C93.5352593,26.8763158 93.9202593,27.0486862 94.1989444,27.3273713 C94.4776296,27.6060565 94.65,27.9910565 94.65,28.4163158 L94.65,28.4163158 L94.6500052,57.4717786 C94.6350172,60.224623 91.7935395,63.2629715 88.1137628,65.7032445 C84.0313502,68.4105286 78.8539162,70.3868421 75,70.3868421 C71.1944608,70.3868421 66.0983745,68.4596225 62.0404681,65.8048737 C58.36242,63.3986346 55.4916877,60.3919806 55.3549213,57.647167 L55.3549213,57.647167 L55.35,28.4163158 C55.35,27.9910565 55.5223704,27.6060565 55.8010556,27.3273713 C56.0797407,27.0486862 56.4647407,26.8763158 56.89,26.8763158 L56.89,26.8763158 Z" id="形状结合" stroke="#0D2450" stroke-width="0.7"></path>
                            <g id="编组-12" transform="translate(65.625000, 36.000000)">
                                <path d="M9.97,0.5 C10.875747,0.5 11.695747,0.867126505 12.2893102,1.46068976 C12.8828735,2.05425301 13.25,2.87425301 13.25,3.78 L13.25,3.78 L13.25,8.34210526 L5.5,8.34210526 L5.5,3.78 C5.5,2.87425301 5.86712651,2.05425301 6.46068976,1.46068976 C7.05425301,0.867126505 7.87425301,0.5 8.78,0.5 L8.78,0.5 Z" id="矩形" stroke="#0D2450"></path>
                                <path d="M1.52272132,6.94736842 L17.2272787,6.94736842 C18.0682544,6.94736842 18.75,7.62911398 18.75,8.47008974 L18.75,18.687805 C18.75,19.5287808 18.0682544,20.2105263 17.2272787,20.2105263 L1.52272132,20.2105263 C0.681745557,20.2105263 3.25034433e-16,19.5287808 0,18.687805 L0,8.47008974 C-1.02989828e-16,7.62911398 0.681745557,6.94736842 1.52272132,6.94736842 Z" id="形状结合" fill="#FFFFFF"></path>
                                <rect id="矩形" fill="#0D2450" x="8.125" y="10.7368421" width="2.5" height="5.68421053" rx="1.25"></rect>
                            </g>
                        </g>
                        <g id="编组-4" stroke-width="1" fill="none" transform="translate(32.468891, 42.878500) scale(-1, 1) rotate(-345.000000) translate(-32.468891, -42.878500) translate(4.697458, 21.072737)">
                            <path d="M51.2713739,4.80098852 C49.1086838,11.0667192 43.498507,14.5755904 34.4408436,15.327602 C25.3831802,16.0796136 17.9548654,15.8332291 12.1558992,14.5884484 C12.6751845,16.7627319 14.8697999,18.4442572 18.7397454,19.6330244 C24.5446636,21.4161751 26.5210485,20.7794954 34.4408436,20.7794954 C42.3606388,20.7794954 49.7746957,16.81599 50.7044803,13.8394999 C51.3243367,11.8551732 51.5133013,8.84233607 51.2713739,4.80098852 Z" id="路径-16" fill="#3890FF" transform="translate(31.764573, 12.845493) rotate(-15.000000) translate(-31.764573, -12.845493) "></path>
                            <path d="M54.7714324,23.7756866 C52.6285941,27.1947843 47.0794699,29.3945432 38.1240598,30.3749631 C29.1686497,31.355383 16.7177739,31.1262273 0.771432436,29.6874959 C1.49750421,32.1547554 4.94837999,34.0681217 11.1240598,35.4275947 C26.7049853,37.9539105 43.5610501,36.9182736 48.7875214,33.8016373 C52.2718356,31.7238798 54.2664726,28.3818962 54.7714324,23.7756866 Z" id="路径-17" stroke="#0D2450" stroke-width="0.7" stroke-linejoin="round" transform="translate(27.771432, 30.310890) rotate(-15.000000) translate(-27.771432, -30.310890) "></path>
                        </g>
                    </g>
                </g>
            </g>
        </g>
    </g>
</svg>