<?xml version="1.0" encoding="UTF-8"?>
<svg width="107px" height="80px" viewBox="0 0 107 80" version="1.1" xmlns="http://www.w3.org/2000/svg" xmlns:xlink="http://www.w3.org/1999/xlink">
    <title>pic-ok</title>
    <defs>
        <rect id="path-1" x="0" y="0" width="107" height="90"></rect>
    </defs>
    <g id="åº”ç”¨å¸‚åœºðŸš©" stroke="none" stroke-width="1" fill="none" fill-rule="evenodd">
        <g id="åº”ç”¨å¸‚åœº-04æ’ä»¶-01Zohocrm-02å·²ç™»å½•" transform="translate(-187.000000, -120.000000)">
            <g id="pic-ok" transform="translate(187.000000, 120.000000)">
                <mask id="mask-2" fill="white">
                    <use xlink:href="#path-1"></use>
                </mask>
                <use id="è’™ç‰ˆ" fill="#FFFFFF" opacity="0" xlink:href="#path-1"></use>
                <g id="ç¼–ç»„-9" mask="url(#mask-2)">
                    <g transform="translate(91.698294, 61.697837) scale(1, -1) translate(-91.698294, -61.697837) translate(85.415946, 53.576474)">
                        <path d="M3.30667866,16.0499695 C8.32400099,16.5991144 11.1999445,15.9749072 11.9345092,14.1773477 C11.797869,11.9908893 10.8326621,10.0738079 10.8326621,10.0738079 C9.90914253,12.9740605 7.40048137,14.9661143 3.30667866,16.0499695 Z" id="è·¯å¾„-10å¤‡ä»½" stroke="none" fill="#0D2450"></path>
                        <path d="M0,0 L4.00132,6.51621531 C9.13092369,6.90542296 11.6957255,9.43395059 11.6957255,14.1017982 C14.477901,7.45254982 10.5793258,2.75195042 0,0 Z" id="è·¯å¾„-9å¤‡ä»½" stroke="#0D2450" stroke-width="0.622222222" fill="#FFFFFF" stroke-linejoin="round"></path>
                    </g>
                </g>
                <g id="ç¼–ç»„-4" mask="url(#mask-2)">
                    <g transform="translate(7.133326, 0.000000)">
                        <ellipse id="æ¤­åœ†å½¢" stroke="none" fill="#00D6A4" fill-rule="evenodd" cx="45.2097308" cy="43.4966155" rx="35.6666667" ry="35.5555556"></ellipse>
                        <path d="M11.718643,59.7937974 C17.6467324,71.2325469 29.6205257,79.052171 43.4263975,79.052171 C63.1245535,79.052171 79.0930641,63.1334066 79.0930641,43.4966155 C79.0930641,39.276635 78.3555943,35.2283633 77.0021224,31.4728896" id="è·¯å¾„" stroke="#0D2450" stroke-width="0.622222222" fill="none" stroke-linecap="round"></path>
                        <path d="M87.7360897,34.2042935 C87.7360897,34.2042935 86.1689291,36.7836589 85.69472,37.2481433 C85.69472,37.2481433 87.8799319,42.3369054 93.8549947,43.5858739 C93.8549947,43.5858739 94.568588,42.5217947 95.9957746,40.3936363 C92.5621538,39.3946441 89.8089255,37.3315299 87.7360897,34.2042935 Z" id="è·¯å¾„-3å¤‡ä»½" stroke="none" fill="#F7B548" fill-rule="evenodd" transform="translate(90.845247, 38.895084) scale(-1, -1) rotate(-28.000000) translate(-90.845247, -38.895084) "></path>
                        <path d="M27.3620266,47.0790263 L43.3995038,47.0540068 C44.8699691,47.0517128 46.0638765,48.2419008 46.0661705,49.7123661 C46.0661748,49.7151353 46.0661748,49.7179044 46.0661705,49.7206735 L46.066151,49.7331508 C46.0638585,51.2026601 44.8731571,52.3933615 43.4036478,52.395654 L27.3661705,52.4206735 C25.8957052,52.4229675 24.7017979,51.2327795 24.6995038,49.7623142 C24.6994995,49.7595451 24.6994995,49.756776 24.6995038,49.7540068 L24.6995233,49.7415296 C24.7018158,48.2720203 25.8925173,47.0813188 27.3620266,47.0790263 Z" id="çŸ©å½¢" stroke="none" fill="#FFFFFF" fill-rule="evenodd" transform="translate(35.382837, 49.737340) rotate(-315.000000) translate(-35.382837, -49.737340) "></path>
                        <path d="M36.6370405,42.0145808 L66.9189622,42.0618225 C68.3884715,42.0641151 69.5791729,43.2548165 69.5814655,44.7243258 L69.5814849,44.7368031 C69.5837789,46.2072684 68.393591,47.4011757 66.9231256,47.4034697 C66.9203565,47.403474 66.9175874,47.403474 66.9148183,47.4034697 L36.6328965,47.356228 C35.1633872,47.3539355 33.9726858,46.1632341 33.9703933,44.6937248 L33.9703738,44.6812475 C33.9680798,43.2107822 35.1582678,42.0168749 36.6287331,42.0145808 C36.6315022,42.0145765 36.6342714,42.0145765 36.6370405,42.0145808 Z" id="çŸ©å½¢" stroke="none" fill="#FFFFFF" fill-rule="evenodd" transform="translate(51.775929, 44.709025) rotate(-225.000000) translate(-51.775929, -44.709025) "></path>
                        <path d="M17.1354328,0 C17.1354328,0 15.8457421,0.794309466 13.2663606,2.3829284 C15.6269504,6.25280959 17.654823,8.18775019 19.3499784,8.18775019 C19.3499784,8.18775019 20.1158867,7.33172951 21.6477032,5.61968816 C19.1082824,3.81025591 17.6041922,1.93702652 17.1354328,0 Z" id="è·¯å¾„-2" stroke="none" fill="#3890FF" fill-rule="evenodd"></path>
                        <path d="M15.6736986,17.4095571 C15.6736986,17.4095571 14.1021174,19.9891753 13.6269799,20.453953 C13.6269799,20.453953 16.8489527,23.0565947 19.2774763,23.6467633 C19.2774763,23.6467633 19.9929395,22.5824932 21.4238658,20.453953 C19.3409581,19.8539776 17.4242357,18.8391789 15.6736986,17.4095571 Z" id="è·¯å¾„-3" stroke="none" fill="#F7B548" fill-rule="evenodd"></path>
                        <path d="M33.1639748,13.2501576 L36.3689139,11.1509733 C37.2292978,13.2257499 37.6594897,14.6203001 37.6594897,15.3346237 C37.6594897,15.3346237 35.4117323,17.0766391 35.4117323,17.0766391 C35.1251582,16.3013417 34.3759057,15.0258478 33.1639748,13.2501576 Z" id="è·¯å¾„-4" stroke="none" fill="#F7B548" fill-rule="evenodd"></path>
                        <path d="M74.6238885,17.0727403 C74.6238885,17.0727403 75.7966824,17.0727403 78.1422701,17.0727403 C78.7878253,19.362385 78.2014283,21.4887942 76.3830793,23.4519678 C76.3830793,23.4519678 75.1986188,23.4519678 72.8296978,23.4519678 C74.134427,21.282347 74.7324906,19.1559379 74.6238885,17.0727403 Z" id="è·¯å¾„-5å¤‡ä»½" stroke="none" fill="#3890FF" fill-rule="evenodd"></path>
                        <path d="M9.6876321,35.9533254 C3.2292107,37.2487391 0,39.222195 0,41.873693 C0,43.2880629 0.0942160752,44.7729553 0.541997762,46.5817205 C3.6750074,41.7417417 6.75291817,40.4345072 7.9641458,39.1700896 C9.01675802,38.0712529 9.59125345,36.9989981 9.6876321,35.9533254 Z" id="è·¯å¾„-7å¤‡ä»½" stroke="none" fill="#0D2450" fill-rule="evenodd"></path>
                        <path d="M0.0651014073,41.1889403 C0.0651014073,45.5113372 -1.27854619,51.9973832 8.24339428,55.0422618 C10.7898818,55.8565648 16.2937858,56.9131652 21.4000077,57.7777778 C26.5062296,58.6423904 30.0514994,55.2625303 30.0514994,55.2625303 C19.2289015,53.5764744 10.820502,50.5666061 8.92113638,49.8983334 C3.14090651,47.8646178 -0.133058421,45.0138556 0.0651014073,41.1889403 Z" id="è·¯å¾„-8å¤‡ä»½" stroke="none" fill="#3890FF" fill-rule="evenodd"></path>
                    </g>
                </g>
            </g>
        </g>
    </g>
</svg>