<?xml version="1.0" encoding="UTF-8"?>
<svg width="120px" height="90px" viewBox="0 0 120 90" version="1.1" xmlns="http://www.w3.org/2000/svg" xmlns:xlink="http://www.w3.org/1999/xlink">
    <title>pic-link</title>
    <defs>
        <rect id="path-1" x="0" y="0" width="120" height="90"></rect>
    </defs>
    <g id="åº”ç”¨å¸‚åœºðŸš©" stroke="none" stroke-width="1" fill="none" fill-rule="evenodd">
        <g id="åº”ç”¨å¸‚åœº-04æ’ä»¶-01Zohocrm-04æœåŠ¡å™¨æ–­å¼€" transform="translate(-180.000000, -120.000000)">
            <g id="pic-link" transform="translate(180.000000, 120.000000)">
                <mask id="mask-2" fill="white">
                    <use xlink:href="#path-1"></use>
                </mask>
                <use id="è’™ç‰ˆ" fill="#FFFFFF" opacity="0" xlink:href="#path-1"></use>
                <g id="ç¼–ç»„-10" mask="url(#mask-2)">
                    <g transform="translate(11.650105, 4.000000)">
                        <path d="M24.5614421,24.4274158 C18.352025,26.7822208 14.0614937,29.0772839 11.6898482,31.3126049 C8.13237981,34.6655864 8.5445136,42.7026666 8.5445136,42.7026666 C10.6414033,37.3446131 15.9803795,33.5479259 24.5614421,31.3126049 L24.5614421,24.4274158 Z" id="è·¯å¾„-26" stroke="none" fill="#0D2450" fill-rule="evenodd" transform="translate(16.545686, 33.565041) rotate(31.000000) translate(-16.545686, -33.565041) "></path>
                        <path d="M37.6440292,20.0884641 L37.6433852,28.4754641 L32.1750671,28.4758152 C29.8910434,28.4758152 28.0321466,30.2902805 27.9697893,32.5521077 L27.9681731,32.6694907 L27.9681731,62.0252195 C27.9681731,64.3020666 29.7883576,66.1551225 32.0573141,66.2172839 L32.1750671,66.218895 L43.1129913,66.218895 C45.397015,66.218895 47.2559118,64.4044297 47.3182691,62.1426025 L47.3198853,62.0252195 L47.3193852,54.8954641 L55.7336732,54.8959711 L55.7336732,62.0252195 C55.7336732,68.9735286 50.0832015,74.6062461 43.1129913,74.6062461 L32.1750671,74.6062461 C25.204857,74.6062461 19.5543852,68.9735286 19.5543852,62.0252195 L19.5543852,32.6694907 C19.5543852,25.7211816 25.204857,20.0884641 32.1750671,20.0884641 L37.6440292,20.0884641 Z" id="å½¢çŠ¶ç»“åˆ" stroke="none" fill="#DAE6FC" fill-rule="nonzero" transform="translate(37.644029, 47.347355) rotate(-330.000000) translate(-37.644029, -47.347355) "></path>
                        <path d="M41.9941362,22.4355487 L41.9939205,25.2445863 L36.5256024,25.2449374 C34.2415787,25.2449374 32.382682,27.0594028 32.3203247,29.32123 L32.3187085,29.438613 L32.3187085,58.7943418 C32.3187085,61.0711888 34.138893,62.9242448 36.4078494,62.9864062 L36.5256024,62.9880173" id="è·¯å¾„" stroke="#0D2450" stroke-width="0.7" fill="none" stroke-linecap="round" stroke-linejoin="round" fill-rule="nonzero" transform="translate(37.156422, 42.711783) rotate(-330.000000) translate(-37.156422, -42.711783) "></path>
                        <path d="M58.7006099,2.18416393 L58.6999659,10.5711639 L53.2316478,10.571515 C50.9476241,10.571515 49.0887274,12.3859804 49.02637,14.6478076 L49.0247538,14.7651906 L49.0247538,44.1209194 C49.0247538,46.3977664 50.8449384,48.2508224 53.1138948,48.3129838 L53.2316478,48.3145949 L64.1695721,48.3145949 C66.4535957,48.3145949 68.3124925,46.5001296 68.3748498,44.2383024 L68.376466,44.1209194 L68.3759659,32.1841639 L76.7902539,32.1841639 L76.7902539,44.1209194 C76.7902539,51.0692285 71.1397822,56.701946 64.1695721,56.701946 L53.2316478,56.701946 C46.2614377,56.701946 40.6109659,51.0692285 40.6109659,44.1209194 L40.6109659,14.7651906 C40.6109659,7.81688142 46.2614377,2.18416393 53.2316478,2.18416393 L58.7006099,2.18416393 Z" id="å½¢çŠ¶ç»“åˆå¤‡ä»½-2" stroke="none" fill="#DAE6FC" fill-rule="nonzero" transform="translate(58.700610, 29.443055) rotate(-120.000000) translate(-58.700610, -29.443055) "></path>
                        <path d="M76.8237103,23.748394 L85.2379982,23.748394 L85.2379982,35.6851494 C85.2379982,42.6334585 79.5875265,48.266176 72.6173164,48.266176 L61.6793921,48.266176 C54.709182,48.266176 49.0587103,42.6334585 49.0587103,35.6851494 L49.0587103,6.32942059" id="è·¯å¾„" stroke="#0D2450" stroke-width="0.7" fill="none" stroke-linecap="round" stroke-linejoin="round" fill-rule="nonzero" transform="translate(67.148354, 27.297798) rotate(-120.000000) translate(-67.148354, -27.297798) "></path>
                        <line x1="45.1219414" y1="0" x2="45.1219414" y2="6.67785507" id="è·¯å¾„-12" stroke="#0D2450" stroke-width="0.7" fill="none" stroke-linecap="round"></line>
                        <line x1="33.4415668" y1="0" x2="38.1735051" y2="6.67785507" id="è·¯å¾„-13" stroke="#0D2450" stroke-width="0.7" fill="none" stroke-linecap="round"></line>
                        <line x1="18.653139" y1="6.67785507" x2="33.3186682" y2="11.0911581" id="è·¯å¾„-14" stroke="#0D2450" stroke-width="0.7" fill="none" stroke-linecap="round"></line>
                        <g id="ç¼–ç»„-11" stroke="none" stroke-width="1" fill="none" fill-rule="evenodd" transform="translate(0.000000, 36.492396)">
                            <path d="M100.120541,7.61997739 C101.186422,12.9016835 96.2905071,17.2149837 85.432795,20.5598781 C69.1462268,25.5772196 65.8394062,27.2961896 62.7625873,28.8323611 C60.0038134,30.2097415 58.0381774,31.9528535 56.8656792,34.0616973 C75.7633248,29.3432242 88.0730928,25.7699478 93.7949832,23.341868 C99.5168736,20.9137882 101.625393,15.673158 100.120541,7.61997739 Z" id="è·¯å¾„-23" fill="#3890FF" transform="translate(78.728131, 20.840837) rotate(18.000000) translate(-78.728131, -20.840837) "></path>
                            <path d="M90.6181582,5.4226063 C102.364346,8.26000736 106.441448,12.4880641 102.849463,18.1067767 C99.9530967,12.904973 95.9693755,12.8822323 93.8444015,10.6785809 C92.4277521,9.20947989 91.3523377,7.45748837 90.6181582,5.4226063 Z" id="è·¯å¾„-24" fill="#0D2450" transform="translate(97.364705, 11.764691) rotate(18.000000) translate(-97.364705, -11.764691) "></path>
                            <path d="M86.6682593,27.705274 C78.3800245,31.3934112 70.2207852,33.9294078 62.1905415,35.3132637 C50.145176,37.3890477 39.8684471,39.8592846 36.4063801,42.6038251 C34.0983354,44.4335187 32.2723838,46.9927225 30.9285253,50.2814364 C43.1512615,45.5303636 52.7851835,42.842655 59.8302915,42.2183107 C70.3979534,41.2817942 76.6275301,38.921479 81.1473326,36.4773275 C84.1605342,34.8478932 86.0008431,31.9238753 86.6682593,27.705274 Z" id="è·¯å¾„-25" stroke="#0D2450" stroke-width="0.7" transform="translate(58.798392, 38.993355) rotate(18.000000) translate(-58.798392, -38.993355) "></path>
                            <path d="M1.3234117,4.3631398 C0.895807679,11.609501 5.42419766,15.1197675 14.9085817,14.8939393 C19.0338002,13.4861039 21.1620093,11.5797453 21.1620093,11.5797453 C10.4868037,10.3427932 3.87393781,7.93725803 1.3234117,4.3631398 Z" id="è·¯å¾„-27" fill="#3890FF" transform="translate(11.228875, 9.633658) rotate(31.000000) translate(-11.228875, -9.633658) "></path>
                        </g>
                    </g>
                </g>
            </g>
        </g>
    </g>
</svg>